<svg xmlns="http://www.w3.org/2000/svg" width="470" height="470" color="#fff" version="1.1" viewBox="0 0 470 470"><title>Group</title><desc>Created with Sketch.</desc><g id="Page-1" fill="none" fill-rule="evenodd" stroke="none" stroke-width="1"><g id="Desktop-HD" transform="translate(-485.000000, -298.000000)"><g id="Group" transform="translate(485.000000, 298.000000)"><rect id="Rectangle" width="470" height="470" x="0" y="0" fill="#220BAB" class="to-fill" rx="20"/><g id="Group-2" fill="currentColor" fill-rule="nonzero" class="to-color" transform="translate(135.000000, 82.000000)"><polygon id="Path" points="126.872 36.123 163.877 0 126.872 0"/><polygon id="Path" points="163.381 36.483 126.872 72.878 126.872 109.251 163.381 109.251 163.381 72.878 200 36.483 200 0 163.381 0"/><polygon id="Path" points="200 73.128 162.996 109.251 200 109.251"/><polygon id="Path" points="0 102.607 73.473 102.607 73.473 139.207 110.132 139.207 110.132 73.067 36.792 73.067 110.132 0 73.473 0 0 73.067"/></g><text id="I-graduated-from-Éco" fill="currentColor" class="to-color" font-family="AvenirNext-Bold, Avenir Next" font-size="36" font-weight="bold"><tspan x="134" y="293">I graduated</tspan> <tspan x="134" y="342">from</tspan> <tspan x="134" y="391">École 42</tspan></text></g></g></g></svg>